<mxfile host="app.diagrams.net" modified="2022-06-01T05:16:43.981Z" agent="5.0 (Macintosh; Intel Mac OS X 10_15_7) AppleWebKit/537.36 (KHTML, like Gecko) Chrome/101.0.4951.64 Safari/537.36" etag="XNYwMTHjIIL4kk6kQder" version="18.0.5" type="github">
  <diagram id="wlvqUiy1nTWr7GTlGc1t" name="Page-1">
    <mxGraphModel dx="728" dy="519" grid="1" gridSize="10" guides="1" tooltips="1" connect="1" arrows="1" fold="1" page="1" pageScale="1" pageWidth="827" pageHeight="1169" math="0" shadow="0">
      <root>
        <mxCell id="0" />
        <mxCell id="1" parent="0" />
        <mxCell id="2PQvYqmpzSMMNuAlEMst-13" value="" style="rounded=0;whiteSpace=wrap;html=1;dashed=1;" vertex="1" parent="1">
          <mxGeometry x="120" y="10" width="380" height="450" as="geometry" />
        </mxCell>
        <mxCell id="2PQvYqmpzSMMNuAlEMst-4" style="edgeStyle=orthogonalEdgeStyle;rounded=0;orthogonalLoop=1;jettySize=auto;html=1;exitX=0.5;exitY=1;exitDx=0;exitDy=0;entryX=0.5;entryY=0;entryDx=0;entryDy=0;" edge="1" parent="1" source="2PQvYqmpzSMMNuAlEMst-1" target="2PQvYqmpzSMMNuAlEMst-2">
          <mxGeometry relative="1" as="geometry" />
        </mxCell>
        <mxCell id="2PQvYqmpzSMMNuAlEMst-1" value="&lt;span style=&quot;text-align: start; font-size: 12pt; font-family: JingDongLangZhengTi;&quot; lang=&quot;EN-US&quot;&gt;load&lt;br&gt;undirected&lt;/span&gt;&lt;span style=&quot;font-size: medium; text-align: start;&quot;&gt;&lt;/span&gt;" style="rounded=1;whiteSpace=wrap;html=1;" vertex="1" parent="1">
          <mxGeometry x="180" y="30" width="110" height="40" as="geometry" />
        </mxCell>
        <mxCell id="2PQvYqmpzSMMNuAlEMst-5" style="edgeStyle=orthogonalEdgeStyle;rounded=0;orthogonalLoop=1;jettySize=auto;html=1;exitX=0.5;exitY=1;exitDx=0;exitDy=0;entryX=0.5;entryY=0;entryDx=0;entryDy=0;" edge="1" parent="1" source="2PQvYqmpzSMMNuAlEMst-2" target="2PQvYqmpzSMMNuAlEMst-3">
          <mxGeometry relative="1" as="geometry" />
        </mxCell>
        <mxCell id="2PQvYqmpzSMMNuAlEMst-2" value="获取出边数目" style="shape=parallelogram;perimeter=parallelogramPerimeter;whiteSpace=wrap;html=1;fixedSize=1;" vertex="1" parent="1">
          <mxGeometry x="175" y="100" width="120" height="60" as="geometry" />
        </mxCell>
        <mxCell id="2PQvYqmpzSMMNuAlEMst-8" value="" style="edgeStyle=orthogonalEdgeStyle;rounded=0;orthogonalLoop=1;jettySize=auto;html=1;" edge="1" parent="1" source="2PQvYqmpzSMMNuAlEMst-3" target="2PQvYqmpzSMMNuAlEMst-6">
          <mxGeometry relative="1" as="geometry" />
        </mxCell>
        <mxCell id="2PQvYqmpzSMMNuAlEMst-3" value="partition 切图" style="shape=parallelogram;perimeter=parallelogramPerimeter;whiteSpace=wrap;html=1;fixedSize=1;dashed=1;" vertex="1" parent="1">
          <mxGeometry x="175" y="190" width="120" height="50" as="geometry" />
        </mxCell>
        <mxCell id="2PQvYqmpzSMMNuAlEMst-9" value="" style="edgeStyle=orthogonalEdgeStyle;rounded=0;orthogonalLoop=1;jettySize=auto;html=1;" edge="1" parent="1" source="2PQvYqmpzSMMNuAlEMst-6" target="2PQvYqmpzSMMNuAlEMst-7">
          <mxGeometry relative="1" as="geometry" />
        </mxCell>
        <mxCell id="2PQvYqmpzSMMNuAlEMst-6" value="构建index bitmap" style="shape=parallelogram;perimeter=parallelogramPerimeter;whiteSpace=wrap;html=1;fixedSize=1;" vertex="1" parent="1">
          <mxGeometry x="175" y="280" width="120" height="60" as="geometry" />
        </mxCell>
        <mxCell id="2PQvYqmpzSMMNuAlEMst-7" value="存储图" style="shape=parallelogram;perimeter=parallelogramPerimeter;whiteSpace=wrap;html=1;fixedSize=1;" vertex="1" parent="1">
          <mxGeometry x="175" y="380" width="120" height="60" as="geometry" />
        </mxCell>
        <mxCell id="2PQvYqmpzSMMNuAlEMst-10" value="" style="strokeWidth=2;html=1;shape=mxgraph.flowchart.annotation_2;align=left;labelPosition=right;pointerEvents=1;dashed=1;rotation=-180;" vertex="1" parent="1">
          <mxGeometry x="310" y="120" width="70" height="300" as="geometry" />
        </mxCell>
        <mxCell id="2PQvYqmpzSMMNuAlEMst-11" value="" style="endArrow=none;html=1;rounded=0;exitX=1;exitY=0.323;exitDx=0;exitDy=0;exitPerimeter=0;entryX=0.543;entryY=0.323;entryDx=0;entryDy=0;entryPerimeter=0;dashed=1;strokeWidth=2;" edge="1" parent="1">
          <mxGeometry width="50" height="50" relative="1" as="geometry">
            <mxPoint x="310" y="311.0999999999999" as="sourcePoint" />
            <mxPoint x="341.99" y="311.0999999999999" as="targetPoint" />
          </mxGeometry>
        </mxCell>
        <mxCell id="2PQvYqmpzSMMNuAlEMst-12" value="读取文件" style="text;html=1;strokeColor=none;fillColor=none;align=center;verticalAlign=middle;whiteSpace=wrap;rounded=0;dashed=1;" vertex="1" parent="1">
          <mxGeometry x="400" y="255" width="60" height="30" as="geometry" />
        </mxCell>
        <mxCell id="2PQvYqmpzSMMNuAlEMst-14" value="构图" style="text;html=1;strokeColor=none;fillColor=none;align=center;verticalAlign=middle;whiteSpace=wrap;rounded=0;dashed=1;" vertex="1" parent="1">
          <mxGeometry x="400" y="30" width="60" height="30" as="geometry" />
        </mxCell>
      </root>
    </mxGraphModel>
  </diagram>
</mxfile>
